<svg version="1.1" id="Layer_1" xmlns="http://www.w3.org/2000/svg" xmlns:xlink="http://www.w3.org/1999/xlink" x="0px" y="0px"
	 width="100%" viewBox="0 0 286 106" enable-background="new 0 0 286 106" xml:space="preserve">
<path fill="#FEFEFE" opacity="1.000000" stroke="none" 
	d="
M235.000000,107.000000 
	C156.666687,107.000000 78.833382,107.000000 1.000052,107.000000 
	C1.000035,71.666702 1.000035,36.333401 1.000017,1.000076 
	C96.333275,1.000051 191.666550,1.000051 286.999878,1.000025 
	C286.999908,36.333260 286.999908,71.666519 286.999939,106.999893 
	C269.833344,107.000000 252.666672,107.000000 235.000000,107.000000 
M20.073475,35.264194 
	C19.866453,36.215496 19.480774,37.166435 19.478861,38.118149 
	C19.442661,56.111843 19.441698,74.105652 19.476233,92.099350 
	C19.478340,93.198341 19.836435,94.296654 20.026436,95.381241 
	C25.106562,95.381241 29.871155,95.381241 35.016838,95.381241 
	C35.016838,88.673996 35.016838,82.253212 35.016838,76.417755 
	C39.641148,77.179886 44.011318,78.696365 48.272537,78.435204 
	C56.907307,77.905968 62.245251,72.499573 64.291725,64.334114 
	C66.661301,54.879475 66.213669,45.611633 58.390480,38.558685 
	C51.046566,31.937819 42.897774,33.002506 35.627689,37.110920 
	C33.634811,36.186268 32.318932,35.126900 30.930372,35.021057 
	C27.618971,34.768650 24.273262,34.966324 20.073475,35.264194 
M115.984665,36.748177 
	C115.704659,36.192905 115.439987,35.163284 115.142349,35.153667 
	C110.822495,35.014091 106.491455,34.878529 102.181328,35.098843 
	C101.412605,35.138138 100.726227,36.788223 100.005028,37.690529 
	C90.168930,32.223457 81.232689,33.143700 75.211929,40.227001 
	C68.364799,48.282513 68.168137,63.198898 74.794319,71.901588 
	C80.375954,79.232399 89.076645,80.471954 99.366165,75.402237 
	C101.373810,78.396187 105.807076,78.972336 116.000938,77.430199 
	C116.000938,64.241028 116.000938,50.974140 115.984665,36.748177 
M243.979843,71.018570 
	C241.983322,68.202805 239.986786,65.387039 238.067795,62.680611 
	C228.319809,66.513992 223.645294,65.889793 219.819321,59.946617 
	C224.418121,59.946617 228.656418,59.946617 232.894714,59.946617 
	C237.180801,59.946617 241.466904,59.946617 245.644592,59.946617 
	C247.942871,47.012764 241.774780,36.974812 230.356445,34.399929 
	C218.729019,31.777897 207.679916,38.434391 204.548538,49.947807 
	C200.056168,66.465294 212.835327,80.997650 230.049759,78.612007 
	C235.373276,77.874252 241.256104,77.504570 243.979843,71.018570 
M195.487213,64.924606 
	C194.493530,63.835770 193.499847,62.746933 192.546448,61.702225 
	C185.315872,65.898018 180.583817,66.130257 177.383820,62.574070 
	C174.518280,59.389618 174.120239,54.470913 176.741089,51.050411 
	C177.698486,49.800930 179.333755,48.156300 180.586960,48.216167 
	C184.664093,48.410946 188.707565,49.310303 193.691040,50.082035 
	C195.514038,47.909775 198.147888,44.771336 200.732468,41.691582 
	C192.339966,31.930361 175.469467,31.273191 166.315903,40.016430 
	C157.538177,48.400688 157.530334,64.538910 166.299927,72.842621 
	C175.433670,81.491127 192.643661,80.793671 200.585480,71.261444 
	C199.074631,69.363190 197.528076,67.420059 195.487213,64.924606 
M156.096252,46.653084 
	C157.064407,42.839199 158.032547,39.025314 159.063217,34.965103 
	C152.274826,32.558960 146.869659,34.607685 141.827652,39.050587 
	C141.253723,37.417767 140.809967,36.155308 140.488174,35.239826 
	C135.587784,35.239826 131.170059,35.239826 126.674194,35.239826 
	C126.674194,49.605995 126.674194,63.639820 126.674194,77.677574 
	C131.935471,77.677574 136.829514,77.677574 142.015030,77.677574 
	C142.015030,72.217186 142.012238,67.087059 142.015610,61.956932 
	C142.022552,51.435448 144.304382,49.518085 154.723740,51.596767 
	C155.135681,50.248268 155.563431,48.848049 156.096252,46.653084 
M253.644577,61.498718 
	C253.644577,66.898117 253.644577,72.297516 253.644577,77.739120 
	C259.130829,77.739120 263.872650,77.739120 268.745605,77.739120 
	C268.745605,57.954769 268.745605,38.432854 268.745605,18.588171 
	C263.746338,18.588171 259.017456,18.588171 253.644272,18.588171 
	C253.644272,32.687637 253.644272,46.593277 253.644577,61.498718 
z"/>
<path fill="#1692D2" opacity="1.000000" stroke="none" 
	d="
M20.507442,35.123207 
	C24.273262,34.966324 27.618971,34.768650 30.930372,35.021057 
	C32.318932,35.126900 33.634811,36.186268 35.627689,37.110920 
	C42.897774,33.002506 51.046566,31.937819 58.390480,38.558685 
	C66.213669,45.611633 66.661301,54.879475 64.291725,64.334114 
	C62.245251,72.499573 56.907307,77.905968 48.272537,78.435204 
	C44.011318,78.696365 39.641148,77.179886 35.016838,76.417755 
	C35.016838,82.253212 35.016838,88.673996 35.016838,95.381241 
	C29.871155,95.381241 25.106562,95.381241 20.026436,95.381241 
	C19.836435,94.296654 19.478340,93.198341 19.476233,92.099350 
	C19.441698,74.105652 19.442661,56.111843 19.478861,38.118149 
	C19.480774,37.166435 19.866453,36.215496 20.507442,35.123207 
M50.125877,57.324867 
	C49.877823,49.313103 45.490120,45.154324 39.784302,47.522850 
	C35.920738,49.126644 34.005486,53.617565 35.048134,59.012894 
	C35.827755,63.047123 38.219654,65.782585 42.464642,65.758354 
	C47.213577,65.731247 49.560089,62.724682 50.125877,57.324867 
z"/>
<path fill="#1692D2" opacity="1.000000" stroke="none" 
	d="
M115.992798,37.227715 
	C116.000938,50.974140 116.000938,64.241028 116.000938,77.430199 
	C105.807076,78.972336 101.373810,78.396187 99.366165,75.402237 
	C89.076645,80.471954 80.375954,79.232399 74.794319,71.901588 
	C68.168137,63.198898 68.364799,48.282513 75.211929,40.227001 
	C81.232689,33.143700 90.168930,32.223457 100.005028,37.690529 
	C100.726227,36.788223 101.412605,35.138138 102.181328,35.098843 
	C106.491455,34.878529 110.822495,35.014091 115.142349,35.153667 
	C115.439987,35.163284 115.704659,36.192905 115.992798,37.227715 
M93.332008,65.850151 
	C100.288467,63.732880 103.044693,56.191811 99.048645,50.209332 
	C96.279564,46.063751 90.171333,45.819103 87.176163,49.733807 
	C82.750366,55.518337 85.490921,63.719025 93.332008,65.850151 
z"/>
<path fill="#E34340" opacity="1.000000" stroke="none" 
	d="
M244.153046,71.376251 
	C241.256104,77.504570 235.373276,77.874252 230.049759,78.612007 
	C212.835327,80.997650 200.056168,66.465294 204.548538,49.947807 
	C207.679916,38.434391 218.729019,31.777897 230.356445,34.399929 
	C241.774780,36.974812 247.942871,47.012764 245.644592,59.946617 
	C241.466904,59.946617 237.180801,59.946617 232.894714,59.946617 
	C228.656418,59.946617 224.418121,59.946617 219.819321,59.946617 
	C223.645294,65.889793 228.319809,66.513992 238.067795,62.680611 
	C239.986786,65.387039 241.983322,68.202805 244.153046,71.376251 
M229.016006,51.926266 
	C229.918472,51.851490 230.820938,51.776714 231.723404,51.701939 
	C231.924820,51.123192 232.126251,50.544441 232.327667,49.965694 
	C229.951141,48.950127 227.568787,47.136078 225.199783,47.153313 
	C223.019928,47.169170 220.854431,49.154903 217.658173,50.800190 
	C219.698196,51.651283 219.976868,51.865601 220.258682,51.869846 
	C222.885345,51.909428 225.512558,51.912918 229.016006,51.926266 
z"/>
<path fill="#FC9F19" opacity="1.000000" stroke="none" 
	d="
M195.734360,65.200775 
	C197.528076,67.420059 199.074631,69.363190 200.585480,71.261444 
	C192.643661,80.793671 175.433670,81.491127 166.299927,72.842621 
	C157.530334,64.538910 157.538177,48.400688 166.315903,40.016430 
	C175.469467,31.273191 192.339966,31.930361 200.732468,41.691582 
	C198.147888,44.771336 195.514038,47.909775 193.691040,50.082035 
	C188.707565,49.310303 184.664093,48.410946 180.586960,48.216167 
	C179.333755,48.156300 177.698486,49.800930 176.741089,51.050411 
	C174.120239,54.470913 174.518280,59.389618 177.383820,62.574070 
	C180.583817,66.130257 185.315872,65.898018 192.546448,61.702225 
	C193.499847,62.746933 194.493530,63.835770 195.734360,65.200775 
z"/>
<path fill="#FCA11B" opacity="1.000000" stroke="none" 
	d="
M156.043716,47.050457 
	C155.563431,48.848049 155.135681,50.248268 154.723740,51.596767 
	C144.304382,49.518085 142.022552,51.435448 142.015610,61.956932 
	C142.012238,67.087059 142.015030,72.217186 142.015030,77.677574 
	C136.829514,77.677574 131.935471,77.677574 126.674194,77.677574 
	C126.674194,63.639820 126.674194,49.605995 126.674194,35.239826 
	C131.170059,35.239826 135.587784,35.239826 140.488174,35.239826 
	C140.809967,36.155308 141.253723,37.417767 141.827652,39.050587 
	C146.869659,34.607685 152.274826,32.558960 159.063217,34.965103 
	C158.032547,39.025314 157.064407,42.839199 156.043716,47.050457 
z"/>
<path fill="#E3413E" opacity="1.000000" stroke="none" 
	d="
M253.644424,60.998817 
	C253.644272,46.593277 253.644272,32.687637 253.644272,18.588171 
	C259.017456,18.588171 263.746338,18.588171 268.745605,18.588171 
	C268.745605,38.432854 268.745605,57.954769 268.745605,77.739120 
	C263.872650,77.739120 259.130829,77.739120 253.644577,77.739120 
	C253.644577,72.297516 253.644577,66.898117 253.644424,60.998817 
z"/>
<path fill="#F9FCFE" opacity="1.000000" stroke="none" 
	d="
M50.102623,57.744286 
	C49.560089,62.724682 47.213577,65.731247 42.464642,65.758354 
	C38.219654,65.782585 35.827755,63.047123 35.048134,59.012894 
	C34.005486,53.617565 35.920738,49.126644 39.784302,47.522850 
	C45.490120,45.154324 49.877823,49.313103 50.102623,57.744286 
z"/>
<path fill="#F7FBFE" opacity="1.000000" stroke="none" 
	d="
M92.947540,65.851707 
	C85.490921,63.719025 82.750366,55.518337 87.176163,49.733807 
	C90.171333,45.819103 96.279564,46.063751 99.048645,50.209332 
	C103.044693,56.191811 100.288467,63.732880 92.947540,65.851707 
z"/>
<path fill="#FDF2F2" opacity="1.000000" stroke="none" 
	d="
M228.577805,51.926567 
	C225.512558,51.912918 222.885345,51.909428 220.258682,51.869846 
	C219.976868,51.865601 219.698196,51.651283 217.658173,50.800190 
	C220.854431,49.154903 223.019928,47.169170 225.199783,47.153313 
	C227.568787,47.136078 229.951141,48.950127 232.327667,49.965694 
	C232.126251,50.544441 231.924820,51.123192 231.723404,51.701939 
	C230.820938,51.776714 229.918472,51.851490 228.577805,51.926567 
z"/>
</svg>