<?xml version="1.0" encoding="utf-8"?>
<!-- Generator: Adobe Illustrator 26.5.0, SVG Export Plug-In . SVG Version: 6.00 Build 0)  -->
<svg version="1.1" id="Layer_1" xmlns="http://www.w3.org/2000/svg" xmlns:xlink="http://www.w3.org/1999/xlink" x="0px" y="0px"
	 viewBox="0 0 180 61" style="enable-background:new 0 0 180 61;" xml:space="preserve">
<style type="text/css">
	.st0{fill:#FFCC00;}
	.st1{fill-rule:evenodd;clip-rule:evenodd;fill:#D40511;}
</style>
<path class="st0" d="M5,0.4h170c2.8,0,5,2.2,5,5v50c0,2.8-2.2,5-5,5H5c-2.8,0-5-2.2-5-5v-50C0,2.6,2.2,0.4,5,0.4z"/>
<path class="st1" d="M50.2,26.8l3.6-6.4h20.8c5.3,0,6.6,5.5,5.2,8.1c-1.1,1.9-2.4,4.2-2.4,4.2h-8c-1.5,0-1.1-0.8-0.8-1.3
	c0.3-0.5,0.6-1.1,0.9-1.7l0,0c0.3-0.6,0.6-1.2,0.9-1.6c0.5-0.9,0.5-1.4-0.5-1.4L50.2,26.8L50.2,26.8z M56,28.4l-7.2,12.9h17.7
	c5.8,0,9.1-5.2,10.1-7h-12c-1.5,0-1.1-0.8-0.8-1.3s0.7-1.2,1.1-1.9l0,0c0.3-0.5,0.5-1,0.7-1.3c0.5-0.9,0.5-1.4-0.5-1.4
	C65.1,28.4,56,28.4,56,28.4z M134.1,34.3h12.8v1.5h-13.7L134.1,34.3z M34,34.3h16.8L50,35.8H34V34.3z M34,37h15.3l-0.8,1.5H34V37z
	 M47.7,39.8H34v1.5h12.9L47.7,39.8z M146.9,38.5h-15.2l0.8-1.5h14.4V38.5z M130.2,41.3H147v-1.5h-16L130.2,41.3z M90.3,34.3l-3.9,7
	H76l3.9-7H90.3z M101.3,41.3l3.9-7H94.9l-3.9,7H101.3z M108.6,34.3c0,0-0.8,1.4-1.1,2c-1.3,2.3-0.2,5,4.1,5h16.6l3.9-7H108.6z
	 M106.2,32.7H80.8l6.9-12.3h10.4l-4,7.1h4.6l4-7.1h10.4L106.2,32.7z M120.5,32.7l6.9-12.3h-11l-6.9,12.3H120.5z"/>
</svg>
