<?xml version="1.0" encoding="utf-8"?>
<!-- Generator: Adobe Illustrator 27.0.0, SVG Export Plug-In . SVG Version: 6.00 Build 0)  -->
<svg version="1.1" id="Layer_1" xmlns="http://www.w3.org/2000/svg" xmlns:xlink="http://www.w3.org/1999/xlink" x="0px" y="0px"
	 viewBox="0 0 180 61" style="enable-background:new 0 0 180 61;" xml:space="preserve">
<style type="text/css">
	.st0{fill:#009EE6;}
	.st1{fill-rule:evenodd;clip-rule:evenodd;fill:#FFFFFF;}
</style>
<path class="st0" d="M5,0.4h170c2.8,0,5,2.2,5,5v50c0,2.8-2.2,5-5,5H5c-2.8,0-5-2.2-5-5v-50C0,2.6,2.2,0.4,5,0.4z"/>
<path class="st1" d="M109,24.8L109,24.8c-0.1,0.1-0.2,0.2-0.2,0.3l-5.4,7.2l0,0c-0.1,0.1-0.1,0.2-0.2,0.2c-0.1,0.1-0.2,0.2-0.2,0.3
	c-1.7,2.2-3.3,4.4-5,6.6c-0.1,0.2-0.4,0.3-0.6,0.3c-3.4,0-6.9,0-10.5,0L109,10.4h10.7c0,0.1-0.1,0.1-0.1,0.2l0,0
	c-0.1,0.1-0.1,0.2-0.2,0.3c-3.4,4.6-6.9,9.1-10.3,13.7C109.1,24.6,109,24.7,109,24.8L109,24.8z M71,30.8c1.2,0,2.5,0,3.7,0l0,0
	l-6.8,9h-7c-0.1,0-0.1,0-0.2,0l0,0V10.4h7.2l6.8,9c-0.1,0-0.1,0-0.2,0c-1,0-2,0-2.9,0l0,0l0,0l0,0l0,0l0,0l0,0l0,0l0,0l0,0l0,0l0,0
	l0,0l0,0l0,0l0,0l0,0l0,0l0,0l0,0l0,0c-0.3,0-0.7,0-1,0h-0.8v11.5C70.2,30.8,70.6,30.8,71,30.8L71,30.8z M90,24.9L90,24.9L90,24.9
	L90,24.9l0.1,0.1c0,0,0,0.1-0.1,0.1l0,0l0,0l0,0c-0.1,0.1-0.1,0.2-0.2,0.3c-3.5,4.7-7,9.3-10.5,14c-0.1,0.2-0.4,0.4-0.6,0.4
	c-3.4,0-6.8,0-10.2,0l16.3-21.7c0.8,1.1,1.6,2.2,2.5,3.3c0.8,1.1,1.6,2.2,2.5,3.3C89.9,24.7,89.9,24.8,90,24.9z M84.6,17.7
	c-0.4-0.5-0.7-0.9-1.1-1.4l0,0c-0.4-0.5-0.7-0.9-1.1-1.4c-1.1-1.5-2.2-3-3.3-4.5H68.5l10.8,14.3L84.6,17.7z M98,10.8
	c1.7,2.2,3.3,4.4,5,6.6l0,0l0,0l0,0l0,0c0,0,0,0,0,0.1l-5.4,7.2c-0.2-0.3-0.4-0.5-0.6-0.8l0,0c-0.2-0.3-0.4-0.5-0.6-0.8
	c-3.1-4.1-6.3-8.3-9.4-12.4c-0.1-0.1-0.1-0.2-0.2-0.3l0,0l0,0l0,0l0,0l0,0l0,0l0,0l0,0l0,0l0,0l0,0l0,0l0,0l0,0c0,0,0-0.1-0.1-0.1
	h10.9c0,0,0,0.1,0.1,0.1C97.9,10.7,97.9,10.8,98,10.8z M109,25.5l-5.4,7.2l0,0l0,0l0,0c0,0,0,0.1,0.1,0.1c0.3,0.5,0.7,0.9,1,1.4l0,0
	l0,0l0,0l0,0l0,0l0,0l0,0l0,0c1.3,1.7,2.6,3.4,3.8,5.1c0.2,0.3,0.5,0.5,0.9,0.4c2.4,0,4.9,0,7.3,0l0,0l0,0l0,0l0,0l0,0l0,0l0,0l0,0
	l0,0l0,0l0,0l0,0l0,0l0,0l0,0l0,0l0,0c0.8,0,1.6,0,2.4,0c0.2,0,0.3,0,0.6,0C116.2,34.9,112.6,30.2,109,25.5z M48.2,45.2H46l0,0v5.9
	h2.3c0.5,0,0.8,0,1.1-0.1c0.4-0.1,0.7-0.3,0.9-0.5c0.3-0.3,0.5-0.6,0.7-1c0.1-0.3,0.2-0.8,0.2-1.3s-0.1-1-0.2-1.4
	c-0.1-0.4-0.3-0.7-0.6-0.9c-0.2-0.3-0.5-0.4-0.9-0.5C49.1,45.2,48.8,45.2,48.2,45.2z M47.2,50.1v-3.9l0,0h0.5c0.5,0,0.8,0,1,0.1
	s0.4,0.1,0.6,0.3c0.1,0.1,0.3,0.3,0.3,0.6c0.1,0.2,0.1,0.6,0.1,1s0,0.8-0.1,1.1s-0.2,0.5-0.3,0.6s-0.3,0.2-0.5,0.2s-0.4,0.1-0.7,0.1
	L47.2,50.1L47.2,50.1z M52.1,45.2v5.9h4.6v-1h-3.4v-1.6h3v-1h-3v-1.3h3.3v-1C56.6,45.2,52.1,45.2,52.1,45.2z M57.8,51.1v-5.8H59v4.8
	h3v1H57.8z M62.9,45.2v5.9h1.2v-5.9H62.9z M66.8,51.1l-2.2-5.9H66l1.5,4.3l1.5-4.3h1.3l-2.2,5.9H66.8z M71,45.2v5.9h4.6v-1h-3.4
	v-1.6h3v-1h-3v-1.3h3.3v-1C75.5,45.2,71,45.2,71,45.2z M76.6,45.2v5.9l0,0h1.2v-2.5H78c0.3,0,0.5,0,0.6,0.1c0.1,0,0.3,0.1,0.4,0.2
	c0.1,0.1,0.3,0.4,0.6,0.9l0.9,1.3H82L81.3,50c-0.3-0.5-0.5-0.8-0.7-0.9c-0.2-0.2-0.4-0.3-0.7-0.5c0.5-0.1,0.9-0.3,1.2-0.5
	c0.3-0.3,0.4-0.7,0.4-1.1c0-0.3-0.1-0.7-0.3-0.9c-0.2-0.3-0.4-0.5-0.7-0.6c-0.3-0.1-0.8-0.2-1.4-0.2h-2.5V45.2z M78.7,47.7h-0.9
	v-1.5h1c0.5,0,0.8,0,0.9,0c0.2,0,0.3,0.1,0.5,0.2c0.1,0.1,0.2,0.3,0.2,0.5s0,0.3-0.1,0.4c-0.1,0.1-0.2,0.2-0.3,0.2
	C79.7,47.6,79.3,47.7,78.7,47.7z M82.7,45.2v5.9h4.6v-1h-3.4v-1.6h3v-1h-3v-1.3h3.3v-1C87.2,45.2,82.7,45.2,82.7,45.2z M90.6,45.2
	h-2.2l0,0v5.9h2.3c0.5,0,0.8,0,1.1-0.1c0.4-0.1,0.7-0.3,0.9-0.5c0.3-0.3,0.5-0.6,0.7-1c0.1-0.3,0.2-0.8,0.2-1.3s-0.1-1-0.2-1.4
	s-0.3-0.7-0.6-0.9c-0.2-0.3-0.6-0.4-0.9-0.5C91.5,45.2,91.1,45.2,90.6,45.2z M89.6,46.2L89.6,46.2h0.6c0.5,0,0.8,0,1,0.1
	s0.4,0.1,0.6,0.3c0.1,0.1,0.3,0.3,0.3,0.6c0.1,0.2,0.1,0.6,0.1,1s0,0.8-0.1,1.1s-0.2,0.5-0.3,0.6c-0.1,0.1-0.3,0.2-0.5,0.2
	s-0.4,0.1-0.7,0.1h-0.9L89.6,46.2L89.6,46.2z M96.8,45.2v5.9h4.6v-1H98v-1.6h3v-1h-3v-1.3h3.3v-1C101.3,45.2,96.8,45.2,96.8,45.2z
	 M103.9,48l-1.9-2.8h1.4l1.2,1.9l1.2-1.9h1.4l-1.9,2.8l2.1,3H106l-1.3-2l-1.3,2h-1.5L103.9,48z M113.6,51.1h-1.3l-0.5-1.3h-2.4
	l-0.5,1.3h-1.3l2.4-5.9h1.3L113.6,51.1z M111.3,48.7l-0.8-2.2l-0.8,2.2H111.3z M118.1,48.9l1.2,0.4c-0.2,0.6-0.5,1.1-0.9,1.4
	c-0.4,0.3-1,0.5-1.6,0.5c-0.8,0-1.5-0.3-2-0.8s-0.8-1.3-0.8-2.2c0-1,0.3-1.7,0.8-2.3c0.5-0.5,1.2-0.8,2.1-0.8c0.7,0,1.3,0.2,1.8,0.6
	c0.3,0.2,0.5,0.6,0.6,1.1l-1.2,0.3c-0.1-0.3-0.2-0.5-0.4-0.7c-0.2-0.2-0.5-0.3-0.8-0.3c-0.4,0-0.8,0.2-1.1,0.5
	c-0.3,0.3-0.4,0.8-0.4,1.5s0.1,1.3,0.4,1.6s0.6,0.5,1.1,0.5c0.3,0,0.6-0.1,0.8-0.3C117.8,49.6,118,49.3,118.1,48.9z M121.7,46.2v4.9
	h1.2v-4.9h1.8v-1h-4.8v1H121.7z M125.6,51.1v-5.8h1.2v4.8h3v1H125.6z M131.5,48.6v2.5h1.2v-2.5l2.2-3.4h-1.4l-1.4,2.3l-1.4-2.3h-1.4
	L131.5,48.6z"/>
</svg>
