<svg id="Layer_1" xmlns="http://www.w3.org/2000/svg" viewBox="0 0 954 147"><style>.st0{fill:#005CB9;} .st1{fill:#FFA400;} .st2{fill:#FF0000;}</style><path class="st0" d="M825 133.1c-2.7 0-4.8 2-4.8 4.7 0 2.5 2.1 4.6 4.8 4.6 2.8 0 4.9-2 4.9-4.6 0-2.7-2.2-4.7-4.9-4.7zm25-17.7c2.6 0 5.1.9 6.9 2.5l1.2 1.1 4.7-5.2-1.2-1.1c-3.1-2.9-7.3-4.5-11.7-4.5-9.8 0-17.2 7.3-17.2 17s7.4 17 17.2 17c4.5 0 8.7-1.6 11.7-4.5l1.2-1.1-4.7-5.1-1.2 1.1c-1.8 1.6-4.2 2.5-6.9 2.5-5.8 0-10.1-4.2-10.1-9.9s4.3-9.8 10.1-9.8zm30.5-7.1c-9.9 0-17 7.1-17 16.9 0 9.8 7.3 17.1 17 17.1 9.8 0 17.1-7.4 17.1-17.1 0-9.8-7.2-16.9-17.1-16.9zm0 26.9c-5.7 0-9.8-4.2-9.8-10 0-5.7 4.1-9.8 9.8-9.8 4.9 0 9.8 3.4 9.8 9.8 0 5.8-4.1 10-9.8 10zm57-26.9c-4.8 0-8.6 1.9-10.9 5.2-2.3-3.3-5.9-5.2-10.2-5.2-2.9 0-6.4.8-8.4 2.6v-1.4h-7V142h7v-18.3c0-7.4 5.4-8.2 7.7-8.2 3.9 0 6.3 2.9 6.3 7.6V142h7v-20.1c1-1.8 1.2-3.2 2.3-4.3 1.3-1.4 3.5-2.1 5.7-2.1 4.1 0 7 2.9 7 7.6V142h7v-19.1c0-8.9-5.2-14.6-13.5-14.6zM57.6 3H1.9v139.4h20.7V91.2H57c13.8 0 25.1-4.8 32.5-13.9 6.3-7.7 9.7-18.2 9.7-30.2C99.2 26.7 88.3 3 57.6 3zm-35 19.9h34.8c19.5 0 21.1 18.5 21.1 24.1 0 21.8-15.4 24.1-22 24.1H22.7V22.9h-.1zm156.9 31.8c-8-7.3-19.2-11.5-31.4-11.5-28.1 0-49.2 21.7-49.2 50.4 0 28.4 21.6 50.6 49.2 50.6 12.2 0 23.4-4.3 31.4-11.6v9.7h20.4V45.2h-20.4v9.5zm0 39.2c0 17.3-13.1 30.4-30.4 30.4-16.7 0-29.8-13.6-29.8-31 0-17 13.1-30.4 29.8-30.4 14.7 0 30.4 10.9 30.4 31zm93.1-47.4c-4.6-2.3-11.2-3.1-15.9-3.1-9.8 0-17.8 3.7-23.7 10.8v-8.9h-20.5v97.1H233v-37.6c0-12.5 2.3-41.4 23.5-41.4 2.4 0 6.1.4 10.4 2.2l4.6 1.9 3.8-19.6-2.7-1.4zm53.7 16.6c8.1 0 15.6 2.8 21.3 7.9l3 2.7 13.1-14.4-3-2.7c-9.2-8.6-21.6-13.3-34.8-13.3-29.1 0-51.1 21.7-51.1 50.4s22 50.4 51.1 50.4c13.4 0 25.8-4.7 34.8-13.3l2.9-2.8-13.1-14.1-3 2.7c-5.5 5-13 7.7-21.3 7.7-18.1 0-31.2-12.9-31.2-30.6s13.2-30.6 31.3-30.6z"/><path class="st0" d="M412.1 43.4c-28.6 0-49.4 21.1-49.4 50.2 0 29.4 20.8 50.8 49.4 50.8 18.8 0 35-9.1 43.4-24.4l2.1-3.9-17.8-7.8-1.9 3c-5.1 8.3-14.6 13.3-25.5 13.3-14.9 0-25.3-8-28.5-21.6h75.4l.4-3.6c.2-1.9.2-4 .2-5.8.1-29.6-19.6-50.2-47.8-50.2zm0 19.7c14.1 0 24.2 8 27.1 21.2h-55c3.2-13.5 13.2-21.2 27.9-21.2zm58.6-55.7h20.4v135h-20.4z"/><path class="st1" d="M763.5 1.5c-35.4 0-63.9 25-69.4 59h21.1c5.1-22 24.5-39.1 48.3-39.1 27.8 0 49.6 22.8 49.6 51.7 0 28.8-21.8 51.4-49.6 51.4-17.6 0-32.8-9-41.6-23-2.2 7.9-5.3 15.1-9.3 21.4 12.7 13.4 30.7 21.6 50.9 21.6 39.5 0 70.4-31.5 70.4-71.5 0-39.9-30.9-71.5-70.4-71.5z"/><path class="st1" d="M654 71.3v18h39.3c-3.6 22-20 34.7-43.1 34.7-27.6 0-49.2-22-49.5-50.5v-.2c0-7.2 1.4-13.9 3.8-20.1.1-.2.2-.5.3-.7.2-.4.4-.8.5-1.2.1-.3.3-.6.4-.9.3-.7.6-1.3 1-2 0-.1.1-.1.1-.2 8.4-16.2 24.7-26.9 43.8-26.7 15.9.1 29.8 7.8 38.8 19.7 3.3-7.9 7.5-14.2 11-18.8-12.6-12.9-30-20.9-49.6-21.1-16.4-.1-31.4 5.3-43.3 14.6-9.4 7.1-16.6 16.4-21.3 27.3C584.7 21.5 568 3 544.5 3c-21.9 0-38.2 12.5-41.6 31.8l-.7 3.8 18.7 4.6.8-4.2c1.9-9.9 10.6-16.1 22.7-16.1 13 0 21.4 11.4 21.4 23.5 0 5.8-4.2 14.8-11.6 23.9L504 131v11.6h84v-21.3h-51.1l34.2-40c3.6-5 6.6-8.8 8.9-13.2-.1 1.7-.2 3.4-.2 5.1 0 40 30.9 71.3 70.4 71.3 40.4 0 64.9-25.8 65.4-69.3l.1-3.9H654z"/></svg>