<svg xmlns="http://www.w3.org/2000/svg" width="281" height="126" viewBox="0 0 281 126" version="1.1"><path d="M 0 62.949 L 0 126 15.500 126 L 31 126 31 106.583 L 31 87.165 48.250 86.788 C 71.845 86.273, 71.712 86.340, 84.169 68.861 C 89.407 61.513, 94.262 54.424, 94.957 53.109 C 95.813 51.491, 96.096 47.608, 95.835 41.097 C 95.493 32.579, 95.041 30.618, 91.889 23.983 C 87.439 14.612, 80.709 7.708, 72.003 3.582 L 65.500 0.500 32.750 0.199 L 0 -0.101 0 62.949 M 172 37.358 L 172 74.717 177.750 78.493 C 180.912 80.570, 186.331 84.269, 189.791 86.714 L 196.083 91.160 184.041 99.797 L 172 108.435 172 117.217 L 172 126 202.750 125.974 C 231.921 125.950, 233.837 125.834, 240.058 123.713 C 265.063 115.188, 281.029 91.539, 280.985 63.090 C 280.967 51.252, 279.070 42.885, 274.046 32.490 C 267.087 18.090, 255.059 7.401, 240.058 2.287 C 233.837 0.166, 231.921 0.050, 202.750 0.026 L 172 0 172 37.358 M 31 43.500 L 31 58 42.750 57.996 C 52.639 57.993, 55.007 57.683, 57.701 56.040 C 63.902 52.260, 66.177 43.072, 62.613 36.206 C 59.529 30.266, 56.060 29.008, 42.750 29.004 L 31 29 31 43.500 M 203 62.895 L 203 97 213.322 97 C 226.452 97, 231.824 95.276, 237.997 89.083 C 249.068 77.974, 251.713 60.154, 244.485 45.380 C 241.661 39.608, 237.181 35.186, 230.722 31.797 C 227.240 29.969, 224.441 29.512, 214.750 29.185 L 203 28.789 203 62.895" stroke="none" fill="#1c141b" fill-rule="evenodd"/><path d="M 109.719 39.087 L 82 78.173 82 90.587 L 82 103 110 103 L 138 103 138 114.500 L 138 126 152.500 126 L 167 126 167 63 L 167 0 152.219 0 L 137.438 0 109.719 39.087 M 125.728 59.832 L 113.956 78.500 125.612 78.783 C 132.022 78.938, 137.443 78.891, 137.656 78.677 C 137.870 78.463, 137.923 69.935, 137.773 59.726 L 137.500 41.164 125.728 59.832 M 172 91.469 L 172 103.951 180.500 97.770 C 185.175 94.370, 189 91.299, 189 90.944 C 189 90.590, 185.175 87.755, 180.500 84.644 L 172 78.987 172 91.469" stroke="none" fill="#0494cc" fill-rule="evenodd"/></svg>