<?xml version="1.0" standalone="yes"?>
<svg xmlns="http://www.w3.org/2000/svg" width="103" height="120">
<path style="fill:#010101; stroke:none;" d="M0 0C0.135529 11.4756 12.4392 19.4392 20 27C22.5785 29.5785 28.9444 33.9707 28.9444 38C28.9444 41.4584 24.195 44.803 22 47C15.7509 53.2547 8.85354 59.2437 3.14815 66C-1.7496 71.7999 0 80.8651 0 88L51 39C40.4162 23.975 18.7554 0 0 0z"/>
<path style="fill:#f36d63; stroke:none;" d="M12 0C21.3841 13.3218 37.6962 28.6286 51 38L51 39L15 73L0.603395 89L0 120C17.8879 111.658 26.4691 87.7932 44 79.0278C50.1622 75.9467 60.2497 78.2588 67 77.9606C78.7032 77.4437 89.3895 71.5261 96.2114 62C111.211 41.0542 101.656 9.55638 77 1.52006C58.2018 -4.60704 31.7108 0 12 0z"/>
<path style="fill:#010101; stroke:none;" d="M73 0L73 1C86.8599 3.38647 99.8978 15.9749 102 30L103 30L103 0L73 0z"/>
<path style="fill:#7fcfd3; stroke:none;" d="M0 7L0 69L23 47L29.7932 38L23 29L0 7z"/>
<path style="fill:#010101; stroke:none;" d="M102 48C98.2374 63.8408 84.2246 76.2062 68 77.8295C60.5688 78.573 51.0468 76.0053 44 78.6034C38.5281 80.6209 34.0209 86.979 30 91C20.7175 100.282 9.56419 109.262 2 120L103 120L103 71L102 48z"/>
</svg>
