<?xml version="1.0" encoding="utf-8"?>
<!-- Generator: Adobe Illustrator 27.0.0, SVG Export Plug-In . SVG Version: 6.00 Build 0)  -->
<svg version="1.1" id="Layer_1" xmlns="http://www.w3.org/2000/svg" xmlns:xlink="http://www.w3.org/1999/xlink" x="0px" y="0px"
	 viewBox="0 0 180 61" style="enable-background:new 0 0 180 61;" xml:space="preserve">
<style type="text/css">
	.st0{fill:#00B040;}
	.st1{fill:#FFD200;}
	.st2{fill:#FFFFFF;}
</style>
<path class="st0" d="M5,0.4h170c2.8,0,5,2.2,5,5v50c0,2.8-2.2,5-5,5H5c-2.8,0-5-2.2-5-5v-50C0,2.6,2.2,0.4,5,0.4z"/>
<g>
	<path class="st1" d="M154.6,37.5h-4.3v4.3h4.3V37.5z"/>
	<path class="st2" d="M42.5,19.5v5.9h-4.3v-1.5h-1.5v13.6h1.5v4.3h-8.6v-4.3h1.6V23.8h-1.5v1.5h-4.5v-5.9L42.5,19.5L42.5,19.5z
		 M42.2,30.7v6.2c0,1.6,0.4,2.9,1.2,3.8c0.8,1,1.9,1.4,3.5,1.4c1.8,0,3.3-0.7,4.6-2.1h0.1v1.8h6.8v-4.3h-1.5V26.4h-6.8v4.3h1.5v6.5
		c-0.9,0.4-1.5,0.6-2.1,0.6s-1-0.1-1.3-0.5s-0.5-0.9-0.5-1.6v-9.3h-6.8v4.3H42.2L42.2,30.7z M61.1,30.7v6.8h-1.5v4.3h8.3v-4.3h-1.5
		v-6.8h2.8v-4.3h-2.8v-2.3c0-0.4,0.1-0.7,0.2-0.9c0.1-0.1,0.5-0.2,1-0.2c0.3,0,0.7,0.1,1.3,0.1l0.4-4.1c-1.2-0.2-2.1-0.3-3-0.3
		c-1,0-1.9,0.1-2.7,0.4c-0.7,0.2-1.3,0.6-1.6,1c-0.4,0.4-0.7,1-0.8,1.5c-0.1,0.6-0.2,1.3-0.2,2.1v2.6h-1.8v4.4H61.1L61.1,30.7z
		 M72.2,30.7v6.8h-1.5v4.3H79v-4.3h-1.5v-6.8h2.7v-4.3h-2.8v-2.3c0-0.4,0.1-0.7,0.2-0.9c0.1-0.1,0.5-0.2,1-0.2
		c0.3,0,0.7,0.1,1.3,0.1l0.4-4.1c-1.1-0.2-2.1-0.3-3-0.3c-1,0-1.9,0.1-2.7,0.4c-0.7,0.2-1.3,0.6-1.6,1c-0.4,0.4-0.7,1-0.8,1.5
		c-0.1,0.6-0.2,1.3-0.2,2.1v2.6h-1.8v4.4H72.2L72.2,30.7z M89.5,41.8v-4.3h-1.3V31c0.8-0.4,1.5-0.6,2.1-0.6s1.1,0.1,1.4,0.5
		c0.3,0.4,0.4,0.9,0.4,1.6v4.9h-1.3v4.3h8v-4.3h-1.5v-6.2c0-1.6-0.4-2.9-1.2-3.8c-0.8-1-1.9-1.4-3.5-1.4c-1.8,0-3.3,0.7-4.6,2.1h0.2
		v-1.8h-6.8v4.4h1.5v6.8h-1.5v4.3H89.5z M115.8,18.8v4.3h1.5v14.3h-1.5v4.3h8.3v-4.3h-1.5V18.8H115.8z M125.4,18.8v4.3h1.5v14.3
		h-1.5v4.3h8.3v-4.3h-1.5V18.8H125.4z M146.9,33.5c-0.8-0.6-1.8-0.9-4.2-1.5c-3-0.7-3.2-0.8-3.2-1.3c0-0.4,0.1-0.8,1.5-0.8
		c0.8,0,1.6,0.1,2.4,0.2v1h4.1v-4.4h-0.2c-3.1-0.4-4.6-0.6-6.3-0.6c-2.1,0-3.5,0.4-4.6,1.4c-1,0.9-1.5,2.1-1.5,3.7
		c0,2.7,1.5,3.9,6,4.9c2.3,0.4,2.3,0.4,2.6,0.6c0.2,0.1,0.5,0.3,0.5,0.6c0,1-1.3,1-1.8,1c-1,0-2.2-0.1-3.2-0.4v-1.3h-4.1v4.5
		l0.1,0.1c2.1,0.7,4.5,1,6.9,1c4.1,0,6.4-1.8,6.4-5C148.5,35.5,148,34.3,146.9,33.5z M112.6,36.3l2.1,3.6l-0.2,0.1
		c-2.4,1.5-4.5,2.1-6.9,2.1c-4.9,0-7.9-3.1-7.9-8s2.9-8,7.7-8c3.2,0,5.6,1.5,6.7,4.2c0.5,1.3,0.7,2.4,0.7,5.2v0.2h-10.2
		c0.4,1.5,1.4,2.2,3.1,2.2c1.6,0,2.9-0.4,4.7-1.5L112.6,36.3z M104.6,32.2h5.6v-0.1c0-0.1,0-0.1,0-0.1c-0.4-1.4-1.3-2-2.8-2
		c-1.4,0-2.3,0.7-2.7,2C104.6,32.2,104.6,32.2,104.6,32.2z"/>
</g>
</svg>
